<svg xmlns="http://www.w3.org/2000/svg" viewBox="350 90 300 250">
<path fill="#7c3aed" stroke="none" d="
M546.778381,143.170624
	C571.837769,159.376846 596.645569,175.305298 621.322937,191.433304
	C636.009155,201.031509 635.978516,216.712524 621.371460,226.194397
	C576.110229,255.574753 530.847717,284.953583 485.503937,314.206238
	C472.276642,322.739563 459.865479,318.754028 453.794159,304.396240
	C425.790985,238.172882 397.800232,171.944290 369.830170,105.706955
	C369.077332,103.924194 367.954132,102.184967 368.359497,99.792320
	C371.491486,98.422760 374.856354,99.127960 378.098694,99.068153
	C385.426880,98.932976 392.763336,99.161888 400.087982,98.950737
	C403.767334,98.844666 405.815216,100.090027 407.237396,103.618439
	C417.878113,130.018570 428.701080,156.345245 439.462555,182.696701
	C444.289581,194.516510 449.106537,206.340408 454.767395,218.077042
	C454.767395,210.186707 454.769012,202.296356 454.767090,194.406006
	C454.761017,169.581909 454.815948,144.757568 454.710480,119.933884
	C454.677002,112.059120 456.822998,105.459862 464.040466,101.364922
	C471.543579,97.107903 478.433380,99.167374 485.133606,103.492462
	C505.562927,116.679909 526.023499,129.818924 546.778381,143.170624
M487.077606,177.500229
	C487.088318,196.659058 487.097656,215.817871 487.110474,234.976700
	C487.115601,242.640198 486.990417,250.307053 487.176819,257.966248
	C487.361481,265.554352 493.136444,268.822632 499.920197,265.331207
	C501.841492,264.342316 503.688873,263.195923 505.509277,262.026917
	C523.025391,250.778488 540.529297,239.510925 558.034729,228.245773
	C561.167725,226.229553 564.291687,224.199097 568.479797,221.489456
	C565.252991,238.021347 557.077332,250.810303 549.042114,263.705475
	C555.025513,258.754944 560.207947,253.170654 564.589417,246.857254
	C574.476318,232.610870 581.915833,217.562714 579.724915,199.476318
	C578.750366,191.431412 575.671753,184.236603 570.779297,177.840118
	C572.674500,186.055344 575.610046,194.033020 574.522217,203.760239
	C570.794800,199.851517 568.074524,196.773041 564.520142,194.506149
	C556.095520,189.133087 547.900330,183.401398 539.506714,177.978363
	C526.497131,169.573074 513.505432,161.131058 500.296631,153.047012
	C493.184265,148.694077 487.352753,152.185699 487.141632,160.507706
	C487.006470,165.835632 487.099609,171.169327 487.077606,177.500229
z"/>
<path fill="#ef4444" stroke="none" d="
M516.001099,189.525391
	C527.921936,187.016037 537.708862,192.994354 540.377869,204.043137
	C543.029785,215.020767 537.080444,225.186371 526.369263,227.979706
	C515.840759,230.725403 505.525635,224.949127 502.393585,214.553787
	C499.126343,203.709702 504.189117,194.169617 516.001099,189.525391
z"/>
</svg>
