<svg version="1.1" id="Layer_1" xmlns="http://www.w3.org/2000/svg" xmlns:xlink="http://www.w3.org/1999/xlink" x="0px" y="0px"
	 width="100%" viewBox="0 0 1024 544" enable-background="new 0 0 1024 544" xml:space="preserve">
<path fill="#7c3aed" opacity="1.000000" stroke="none" 
	d="
M546.778381,143.170624 
	C571.837769,159.376846 596.645569,175.305298 621.322937,191.433304 
	C636.009155,201.031509 635.978516,216.712524 621.371460,226.194397 
	C576.110229,255.574753 530.847717,284.953583 485.503937,314.206238 
	C472.276642,322.739563 459.865479,318.754028 453.794159,304.396240 
	C425.790985,238.172882 397.800232,171.944290 369.830170,105.706955 
	C369.077332,103.924194 367.954132,102.184967 368.359497,99.792320 
	C371.491486,98.422760 374.856354,99.127960 378.098694,99.068153 
	C385.426880,98.932976 392.763336,99.161888 400.087982,98.950737 
	C403.767334,98.844666 405.815216,100.090027 407.237396,103.618439 
	C417.878113,130.018570 428.701080,156.345245 439.462555,182.696701 
	C444.289581,194.516510 449.106537,206.340408 454.767395,218.077042 
	C454.767395,210.186707 454.769012,202.296356 454.767090,194.406006 
	C454.761017,169.581909 454.815948,144.757568 454.710480,119.933884 
	C454.677002,112.059120 456.822998,105.459862 464.040466,101.364922 
	C471.543579,97.107903 478.433380,99.167374 485.133606,103.492462 
	C505.562927,116.679909 526.023499,129.818924 546.778381,143.170624 
M487.077606,177.500229 
	C487.088318,196.659058 487.097656,215.817871 487.110474,234.976700 
	C487.115601,242.640198 486.990417,250.307053 487.176819,257.966248 
	C487.361481,265.554352 493.136444,268.822632 499.920197,265.331207 
	C501.841492,264.342316 503.688873,263.195923 505.509277,262.026917 
	C523.025391,250.778488 540.529297,239.510925 558.034729,228.245773 
	C561.167725,226.229553 564.291687,224.199097 568.479797,221.489456 
	C565.252991,238.021347 557.077332,250.810303 549.042114,263.705475 
	C555.025513,258.754944 560.207947,253.170654 564.589417,246.857254 
	C574.476318,232.610870 581.915833,217.562714 579.724915,199.476318 
	C578.750366,191.431412 575.671753,184.236603 570.779297,177.840118 
	C572.674500,186.055344 575.610046,194.033020 574.522217,203.760239 
	C570.794800,199.851517 568.074524,196.773041 564.520142,194.506149 
	C556.095520,189.133087 547.900330,183.401398 539.506714,177.978363 
	C526.497131,169.573074 513.505432,161.131058 500.296631,153.047012 
	C493.184265,148.694077 487.352753,152.185699 487.141632,160.507706 
	C487.006470,165.835632 487.099609,171.169327 487.077606,177.500229 
z"/>
<path fill="#7c3aed" opacity="1.000000" stroke="none" 
	d="
M550.988098,388.654663 
	C548.345398,414.562225 523.798035,425.051819 502.911499,418.578186 
	C486.658630,413.540741 477.986389,398.955139 479.205261,383.857666 
	C480.688507,365.485748 493.688110,352.917664 511.029266,351.752777 
	C528.563904,350.574921 541.929810,357.878082 548.212341,372.162231 
	C550.455261,377.261719 551.485779,382.619598 550.988098,388.654663 
M533.103149,392.313202 
	C535.233582,382.018494 532.717163,374.154938 525.842651,369.624268 
	C516.778687,363.650696 504.135468,366.143860 499.034546,374.910645 
	C492.987671,385.303223 496.511322,398.675964 506.665192,403.870026 
	C516.485901,408.893616 528.059692,404.110107 533.103149,392.313202 
z"/>
<path fill="#7c3aed" opacity="1.000000" stroke="none" 
	d="
M377.023621,419.332306 
	C364.218994,419.163910 365.744293,420.869690 365.685760,408.385223 
	C365.608490,391.907166 365.866486,375.424622 365.549805,358.952301 
	C365.449860,353.752411 367.208527,352.465698 372.131165,352.577057 
	C385.273743,352.874329 398.428802,352.761688 411.576416,352.603943 
	C415.404602,352.557983 417.286072,353.695068 416.640411,357.756378 
	C416.070068,361.343872 418.833618,366.659119 411.403931,366.374268 
	C403.259857,366.062042 395.087311,366.506104 386.941589,366.216187 
	C382.468231,366.056915 382.042328,368.432037 382.254059,371.816162 
	C382.451721,374.975586 381.223938,378.834351 386.766602,378.656372 
	C393.750427,378.432129 400.752289,378.722290 407.732056,378.438324 
	C411.288666,378.293640 412.652161,379.551086 412.342194,382.992004 
	C412.223145,384.312927 412.197845,385.667114 412.343597,386.982452 
	C412.787994,390.992981 410.868622,392.240265 407.093933,392.147369 
	C400.273865,391.979401 393.444733,392.200562 386.622864,392.073517 
	C383.398254,392.013489 382.297028,393.295990 382.217682,396.495697 
	C382.006195,405.027191 381.880890,405.029358 390.508728,405.060303 
	C397.998840,405.087158 405.490112,405.181763 412.978729,405.084778 
	C416.673035,405.036957 418.716705,406.256073 418.270660,410.293915 
	C418.125336,411.609589 418.129578,412.966705 418.266754,414.283936 
	C418.685974,418.309509 416.741760,419.431122 412.972717,419.381622 
	C401.156921,419.226349 389.337769,419.329254 377.023621,419.332306 
z"/>
<path fill="#7c3aed" opacity="1.000000" stroke="none" 
	d="
M716.032043,404.413452 
	C715.984070,405.866547 715.966675,406.866333 715.959595,407.866211 
	C715.871704,420.245026 715.119690,420.831421 702.515259,419.338867 
	C699.983521,419.039062 698.968689,417.880188 698.971375,415.509460 
	C698.993164,395.844391 699.006470,376.179291 699.053711,356.514282 
	C699.058472,354.544647 699.580566,352.704132 702.060791,352.777069 
	C714.353821,353.138580 726.771301,351.185730 738.918945,353.924042 
	C747.797119,355.925354 754.192261,361.193298 756.259399,370.595001 
	C758.407104,380.363251 756.148438,388.826324 748.314819,395.299103 
	C742.775452,399.876160 735.879578,400.618011 729.028564,401.092529 
	C726.042114,401.299377 723.031311,401.155396 720.031555,401.169800 
	C718.061523,401.179230 716.321167,401.513275 716.032043,404.413452 
M719.870361,366.335510 
	C717.504700,366.240509 716.033508,367.114105 716.014343,369.731720 
	C715.980347,374.391388 715.934692,379.051819 715.809021,383.709625 
	C715.751770,385.830811 716.681335,386.782166 718.760498,386.754913 
	C723.085632,386.698181 727.445129,386.985077 731.727417,386.532623 
	C736.705139,386.006714 739.664490,382.351227 739.928589,377.359467 
	C740.235535,371.557587 738.090881,368.619537 732.682617,367.092957 
	C728.746277,365.981873 724.747559,366.470947 719.870361,366.335510 
z"/>
<path fill="#7c3aed" opacity="1.000000" stroke="none" 
	d="
M650.510498,352.726501 
	C661.182495,350.638733 666.640564,354.670807 670.441284,364.665161 
	C676.762329,381.287109 684.854919,397.234680 692.168091,413.481262 
	C692.833313,414.958923 693.784363,416.398163 693.559265,418.776031 
	C688.562256,419.830811 683.464539,419.511108 678.447937,419.046783 
	C675.687866,418.791321 675.169067,415.840240 674.588257,413.711029 
	C672.777039,407.071045 668.942261,404.349426 661.886536,405.291718 
	C656.809998,405.969727 651.573975,405.449738 646.409119,405.472931 
	C643.484436,405.486084 641.556152,406.596588 640.291504,409.536133 
	C635.955078,419.615784 635.845581,419.575470 624.827820,419.324768 
	C623.347961,419.291138 621.814636,419.515350 620.399658,418.642517 
	C619.387329,416.725067 620.625610,415.126404 621.323669,413.525635 
	C629.577515,394.598816 637.871948,375.689697 646.179932,356.786560 
	C646.967346,354.994965 647.527893,352.897675 650.510498,352.726501 
M658.326721,375.466309 
	C657.538940,374.484467 657.564636,372.895966 655.827271,372.306000 
	C653.298462,378.528534 650.063782,384.441498 648.382141,391.497559 
	C654.010681,392.299225 659.000122,392.178406 664.763855,391.512482 
	C662.520691,385.900848 660.563843,381.005524 658.326721,375.466309 
z"/>
<path fill="#7c3aed" opacity="1.000000" stroke="none" 
	d="
M574.225342,390.747375 
	C578.626770,405.642670 594.293579,410.590271 605.977844,400.866455 
	C609.062439,398.299408 610.781311,398.654663 613.445251,401.152588 
	C621.362549,408.576508 621.374878,409.370667 612.203430,415.301941 
	C597.558350,424.773224 574.239624,420.889130 563.689575,407.221283 
	C552.850220,393.178558 554.655518,372.777557 567.823120,360.510803 
	C580.407288,348.787567 604.426086,348.724823 617.073486,360.267365 
	C619.866028,362.815948 620.671692,364.970367 617.105774,367.374878 
	C616.418823,367.838165 615.708008,368.341553 615.196960,368.978058 
	C611.887146,373.099762 609.089294,373.998138 604.265930,370.019806 
	C597.619019,364.537415 589.584045,364.805481 582.321411,369.413086 
	C574.677734,374.262421 572.780884,381.770874 574.225342,390.747375 
z"/>
<path fill="#7c3aed" opacity="1.000000" stroke="none" 
	d="
M292.506165,361.434143 
	C291.371155,358.664703 290.387848,356.241943 288.984558,352.784393 
	C294.893951,352.784393 299.956818,352.664886 305.009918,352.834991 
	C307.520844,352.919495 307.848083,355.394348 308.593353,357.149719 
	C313.471283,368.639008 318.278229,380.158478 323.097809,391.672485 
	C323.723938,393.168274 324.126770,394.794373 326.071472,396.203491 
	C330.426422,386.014862 334.655792,376.122925 338.881104,366.229248 
	C339.208038,365.463715 339.507416,364.686401 339.818298,363.914032 
	C344.789551,351.563202 346.717682,350.565186 360.309174,353.312500 
	C361.246155,354.694214 360.300751,355.860657 359.808502,357.026672 
	C351.715088,376.197571 343.500824,395.318390 335.566681,414.554810 
	C334.041107,418.253601 332.004333,419.548767 328.088409,419.395508 
	C315.256470,418.893433 318.072876,421.632233 312.551361,408.679291 
	C305.892548,393.058258 299.286682,377.414673 292.506165,361.434143 
z"/>
<path fill="#7c3aed" opacity="1.000000" stroke="none" 
	d="
M475.361359,405.479370 
	C478.555267,409.228088 476.985657,413.300079 476.953949,417.152893 
	C476.938812,418.998596 475.103729,419.287781 473.534149,419.289276 
	C459.535492,419.302704 445.536804,419.275543 431.538269,419.318085 
	C428.765076,419.326508 427.683624,418.038940 427.687897,415.359589 
	C427.719330,395.694641 427.702820,376.029572 427.717407,356.364563 
	C427.717896,355.708038 427.640961,354.771667 428.018005,354.438110 
	C432.187134,350.750031 437.156189,353.201935 441.752930,352.889557 
	C444.711609,352.688446 444.279541,355.445435 444.285065,357.351105 
	C444.325256,371.183258 444.488464,385.019409 444.203979,398.845856 
	C444.104248,403.692780 445.674927,405.230499 450.468262,405.082977 
	C458.615479,404.832275 466.781769,405.200867 475.361359,405.479370 
z"/>
<path fill="#7c3aed" opacity="1.000000" stroke="none" 
	d="
M363.762756,441.589752 
	C366.514648,438.896149 368.424988,439.645111 368.661743,442.860443 
	C369.026459,447.813843 368.850739,452.812561 368.771088,457.789917 
	C368.746643,459.316681 368.253387,460.924286 366.202728,460.719849 
	C364.269928,460.527161 364.000916,458.952667 363.961243,457.390839 
	C363.915100,455.574890 363.950439,453.756866 363.950439,451.452698 
	C360.945953,453.367188 361.067627,457.735138 357.949554,458.151611 
	C354.253479,458.645203 354.586945,453.725555 351.468475,452.244690 
	C351.259308,454.492615 351.125122,456.564575 350.853607,458.618378 
	C350.688477,459.867340 349.994934,460.823181 348.591980,460.831604 
	C347.198761,460.839996 346.417450,459.910034 346.285980,458.664001 
	C345.709534,453.200317 345.563477,447.673523 346.350983,442.272034 
	C346.815399,439.086334 349.303406,439.359253 350.954865,441.615509 
	C353.096466,444.541412 354.853760,447.748657 357.031738,451.244415 
	C360.271484,448.633606 361.604065,445.036377 363.762756,441.589752 
z"/>
<path fill="#7c3aed" opacity="1.000000" stroke="none" 
	d="
M574.276611,442.398071 
	C574.330933,447.683319 574.356567,452.513306 574.324768,457.342896 
	C574.316162,458.652130 574.429749,460.143005 572.851929,460.743225 
	C571.127869,461.399078 570.005249,460.324799 569.026611,459.130859 
	C566.712402,456.307587 564.431091,453.457397 561.080139,449.311005 
	C561.080139,452.903076 561.131348,455.100342 561.063660,457.293915 
	C561.011292,458.991119 560.883850,460.912079 558.544250,460.810425 
	C556.379211,460.716339 556.012207,458.906708 555.988586,457.165924 
	C555.927673,452.669922 555.944946,448.172791 555.942993,443.676117 
	C555.942383,442.322388 555.955627,440.849915 557.413940,440.236877 
	C559.058289,439.545624 560.280518,440.502289 561.286072,441.729858 
	C563.761108,444.751617 566.225403,447.782196 569.781677,450.444672 
	C569.781677,447.843262 569.745178,445.241089 569.797485,442.640717 
	C569.822754,441.387939 570.321045,440.315765 571.720459,440.110657 
	C573.087097,439.910370 573.921082,440.606140 574.276611,442.398071 
z"/>
<path fill="#7c3aed" opacity="1.000000" stroke="none" 
	d="
M691.517639,439.881042 
	C699.427063,442.190399 701.024536,445.767334 697.496643,452.334534 
	C696.701782,453.814331 696.701782,453.814331 698.872986,460.250305 
	C696.232910,461.845062 694.701721,460.266357 693.194580,458.384186 
	C689.701965,454.022522 689.237183,454.054657 687.102722,458.967468 
	C686.575134,460.181854 685.918579,460.978333 684.574829,460.883575 
	C683.252808,460.790405 682.352112,459.948608 682.237122,458.683167 
	C681.740356,453.217407 681.183533,447.591705 682.458313,442.321472 
	C683.525085,437.910950 688.075378,440.404846 691.517639,439.881042 
M693.143677,449.917633 
	C694.830078,448.468018 695.201233,446.874298 693.361206,445.343506 
	C691.836060,444.074615 689.908386,443.823578 688.256042,444.837677 
	C686.785583,445.740051 687.006226,447.602234 687.474548,448.939270 
	C688.401733,451.586609 690.603210,450.652222 693.143677,449.917633 
z"/>
<path fill="#7c3aed" opacity="1.000000" stroke="none" 
	d="
M502.790924,460.871307 
	C500.531128,460.624146 499.974182,459.284149 499.953430,457.681091 
	C499.891083,452.871857 499.890625,448.061584 499.897583,443.251770 
	C499.899292,442.057251 500.206848,440.991516 501.362488,440.304749 
	C503.757690,438.881287 512.560730,439.867493 514.692810,442.047852 
	C517.759277,445.183716 518.301880,448.808350 515.524841,452.349426 
	C513.060791,455.491425 517.258972,457.416382 516.530945,460.439941 
	C514.269653,461.846527 512.807922,460.502686 511.335815,458.763885 
	C507.272247,453.964111 507.004150,454.024200 504.586884,459.519348 
	C504.350006,460.057892 503.667633,460.400391 502.790924,460.871307 
M512.461548,447.535706 
	C511.547699,444.467163 509.205231,443.927948 506.589752,444.625854 
	C504.742462,445.118744 505.154816,446.989441 505.216125,448.441101 
	C505.261749,449.521027 505.801300,450.368408 506.933472,450.564728 
	C509.228424,450.962677 511.235687,450.589783 512.461548,447.535706 
z"/>
<path fill="#7c3aed" opacity="1.000000" stroke="none" 
	d="
M404.021790,439.715027 
	C410.787659,440.665894 414.064392,443.378815 415.078217,448.517609 
	C415.947510,452.923889 413.658051,457.961609 409.841461,460.040588 
	C405.739288,462.275146 400.259888,461.546600 396.842987,458.324463 
	C393.564819,455.233154 392.918304,451.304413 394.084167,447.288483 
	C395.407074,442.731476 398.759247,440.143372 404.021790,439.715027 
M408.403931,454.994019 
	C410.954041,451.856720 411.269958,448.679688 408.139984,445.815033 
	C405.734009,443.612915 402.931152,443.703094 400.529999,445.804260 
	C397.980713,448.035065 397.535339,450.974426 399.380219,453.820862 
	C401.524445,457.129181 404.491974,457.696594 408.403931,454.994019 
z"/>
<path fill="#7c3aed" opacity="1.000000" stroke="none" 
	d="
M392.350525,450.923737 
	C391.251465,458.213593 386.791199,461.943115 380.530426,461.231232 
	C375.122101,460.616272 370.697235,455.593414 370.919891,450.322021 
	C371.169159,444.421875 375.606445,439.922058 381.375305,439.719269 
	C387.764954,439.494598 391.701080,443.359772 392.350525,450.923737 
M378.080780,455.362610 
	C378.642365,455.707184 379.162323,456.194244 379.772522,456.372375 
	C382.862244,457.274536 385.405060,456.429901 386.912292,453.536682 
	C388.246399,450.975769 388.096558,448.333038 386.017090,446.185638 
	C384.121033,444.227570 381.724487,443.637939 379.222534,444.966370 
	C376.314056,446.510651 375.644653,449.156250 376.282806,452.175659 
	C376.479126,453.104675 377.101746,453.943634 378.080780,455.362610 
z"/>
<path fill="#7c3aed" opacity="1.000000" stroke="none" 
	d="
M447.126495,458.501129 
	C446.455963,456.006805 448.225281,452.669586 444.025879,452.475311 
	C440.214142,452.299072 437.952240,453.603088 438.359497,457.885681 
	C438.489349,459.250763 438.163757,460.735809 436.411224,460.830841 
	C434.468750,460.936157 433.868286,459.530731 433.847565,457.865784 
	C433.787415,453.035400 433.756134,448.204437 433.754333,443.373688 
	C433.753693,441.598907 434.055115,439.884064 436.396576,440.004822 
	C438.446716,440.110535 438.760681,441.762054 438.563263,443.276794 
	C438.145294,446.484467 439.292236,447.856384 442.610229,447.925018 
	C445.937561,447.993835 447.071106,446.512543 446.974609,443.417877 
	C446.919830,441.661713 447.333130,439.912720 449.665955,440.091431 
	C451.598145,440.239441 451.983398,441.840942 452.003021,443.385010 
	C452.064362,448.213898 452.360992,453.077209 451.900360,457.863068 
	C451.551971,461.482910 449.611664,462.322937 447.126495,458.501129 
z"/>
<path fill="#7c3aed" opacity="1.000000" stroke="none" 
	d="
M603.126221,457.861633 
	C605.320496,453.012146 607.509888,448.160400 609.711914,443.314453 
	C610.478638,441.626984 611.228394,439.898499 613.525208,439.922516 
	C615.565491,439.943878 616.393677,441.453583 617.066833,442.983704 
	C619.524658,448.570007 621.909119,454.188507 624.266846,459.668396 
	C621.961670,461.771912 620.618713,460.885742 619.257019,459.329346 
	C615.583801,455.130859 611.511536,455.118866 607.902283,459.179230 
	C606.164185,461.134644 604.371216,462.578918 602.924805,458.489349 
	C603.003296,458.025391 603.126221,457.861633 603.126221,457.861633 
z"/>
<path fill="#7c3aed" opacity="1.000000" stroke="none" 
	d="
M708.597351,452.633606 
	C706.047791,456.221619 708.233154,456.447327 710.964539,456.779877 
	C713.153076,457.046356 717.105347,455.295685 717.076782,458.799622 
	C717.044983,462.699799 712.930298,460.971283 710.626709,461.039307 
	C701.898438,461.297028 701.894470,461.172577 701.958008,452.265411 
	C701.963989,451.432800 701.979858,450.600311 701.986694,449.767700 
	C702.072632,439.277252 703.254944,438.306580 713.945679,439.864288 
	C715.500977,440.090942 717.130188,440.305145 716.933655,442.362427 
	C716.768494,444.091797 715.199280,444.002991 713.884583,444.271637 
	C711.761414,444.705505 708.102600,442.985168 707.817871,445.801117 
	C707.476135,449.180664 711.338684,447.437378 713.282715,448.122681 
	C714.576050,448.578613 716.003784,448.821991 715.887207,450.572357 
	C715.765076,452.406158 714.301697,452.424042 712.927368,452.443512 
	C711.597412,452.462341 710.267517,452.484344 708.597351,452.633606 
z"/>
<path fill="#7c3aed" opacity="1.000000" stroke="none" 
	d="
M526.292969,452.676727 
	C523.550110,456.027924 525.410339,456.443085 528.346802,456.802368 
	C530.750549,457.096466 535.244873,454.942444 534.998413,459.149536 
	C534.781677,462.850220 530.359436,460.641479 527.835144,461.115173 
	C526.397522,461.384979 524.859924,461.144440 523.368408,461.099091 
	C520.935852,461.025177 519.779785,459.757477 519.792847,457.318359 
	C519.817810,452.674530 519.800232,448.030426 519.786987,443.386475 
	C519.781616,441.512390 520.366760,440.015717 522.488281,439.945282 
	C525.799377,439.835297 529.116821,439.851562 532.430115,439.904510 
	C533.668762,439.924286 534.758423,440.466492 534.839478,441.898163 
	C534.938965,443.655182 533.648071,443.948120 532.258301,444.265717 
	C530.002441,444.781311 526.041382,442.927856 525.794800,445.851685 
	C525.501404,449.330353 529.670898,447.333801 531.718079,448.209351 
	C532.858704,448.697235 533.915100,449.164642 533.716125,450.614227 
	C533.556580,451.776154 532.621826,452.220032 531.566711,452.305359 
	C529.914978,452.438904 528.256714,452.492981 526.292969,452.676727 
z"/>
<path fill="#7c3aed" opacity="1.000000" stroke="none" 
	d="
M538.231628,441.488220 
	C542.424194,438.526093 546.804321,440.129120 551.019165,440.004486 
	C552.300415,439.966614 553.157288,440.972778 552.976013,442.374878 
	C552.788696,443.823608 551.593872,444.007202 550.401917,444.246857 
	C548.101318,444.709381 545.379578,443.263031 543.341125,445.772308 
	C544.253845,448.774292 546.847168,447.625519 548.731873,448.014526 
	C550.227844,448.323334 551.964844,448.452942 551.898132,450.449341 
	C551.827209,452.572968 550.003174,452.376434 548.520691,452.432526 
	C547.523376,452.470245 546.520874,452.407043 545.526428,452.474213 
	C544.211548,452.563110 543.257263,453.180542 543.294617,454.624268 
	C543.332397,456.084320 544.352966,456.587097 545.655273,456.639252 
	C547.484924,456.712585 549.317200,456.727386 551.145508,456.823029 
	C552.471863,456.892365 553.376526,457.518066 553.362671,458.971375 
	C553.348633,460.445984 552.350342,461.037628 551.074768,461.061707 
	C547.746948,461.124512 544.414429,461.168427 541.089050,461.059357 
	C538.472168,460.973572 537.856689,459.101410 537.875916,456.888733 
	C537.919189,451.896454 537.989685,446.904358 538.231628,441.488220 
z"/>
<path fill="#7c3aed" opacity="1.000000" stroke="none" 
	d="
M628.597961,439.851379 
	C631.338684,439.878632 633.685547,439.716919 635.965820,440.033966 
	C639.852966,440.574402 642.414612,442.944275 642.719910,446.866272 
	C643.043518,451.024902 640.802551,453.899109 636.734436,454.839691 
	C633.626038,455.558319 630.307007,454.981873 629.642334,459.832306 
	C629.360901,461.885681 625.979248,461.248871 625.764954,459.158020 
	C625.144714,453.106934 625.334167,446.984253 626.095276,440.924652 
	C626.149231,440.495422 627.452026,440.223083 628.597961,439.851379 
M636.170349,445.097534 
	C633.993347,444.299377 631.599792,443.097260 630.496338,446.364868 
	C630.055969,447.669067 629.836548,449.481873 631.539856,450.324066 
	C632.922791,451.007782 634.498596,450.920532 635.839417,450.122620 
	C637.751099,448.985046 638.138733,447.411102 636.170349,445.097534 
z"/>
<path fill="#7c3aed" opacity="1.000000" stroke="none" 
	d="
M478.235840,454.991455 
	C475.910980,461.065155 468.849060,463.300598 463.836914,459.955627 
	C462.645477,459.160522 461.698090,458.273468 462.490814,456.691864 
	C463.196259,455.284424 464.369080,455.533447 465.499023,455.984009 
	C468.036560,456.995941 470.504639,457.293488 473.110535,455.889008 
	C471.981232,452.777985 469.382416,452.848145 467.278656,452.179810 
	C464.298157,451.233032 462.197601,449.575348 462.319427,446.183838 
	C462.425110,443.240936 463.801697,441.080231 466.791840,440.291077 
	C470.093964,439.419617 473.378021,439.127625 476.304260,441.406982 
	C477.032745,441.974457 477.069183,442.822845 476.624054,443.656067 
	C475.959564,444.900024 474.943542,445.051666 473.661865,444.765198 
	C471.607941,444.306091 469.449524,443.427246 467.370331,445.999390 
	C470.213898,449.843109 477.631866,448.239136 478.235840,454.991455 
z"/>
<path fill="#7c3aed" opacity="1.000000" stroke="none" 
	d="
M329.590942,459.823151 
	C328.241272,458.819763 327.684631,457.889709 328.461334,456.624878 
	C329.269623,455.308563 330.391418,455.641327 331.523407,456.084015 
	C334.074768,457.081757 336.567139,457.169830 339.291840,455.917816 
	C338.147400,452.513397 335.244446,452.939270 333.102478,452.163727 
	C330.203339,451.114044 328.013580,449.429169 328.106720,446.128754 
	C328.189026,443.212372 329.804321,441.097198 332.691772,440.283417 
	C335.978210,439.357239 339.260742,439.162994 342.159485,441.445038 
	C342.875092,442.008453 342.873962,442.875183 342.449982,443.708405 
	C341.784210,445.016785 340.744934,444.990143 339.490082,444.722961 
	C337.457825,444.290314 335.277954,443.383514 333.652222,445.721588 
	C334.040314,448.204041 336.229034,448.029938 337.812042,448.626251 
	C341.169556,449.891113 344.838684,451.155548 343.960388,455.691284 
	C343.074036,460.269043 339.380798,461.341187 335.197662,461.295227 
	C333.321320,461.274597 331.591522,460.811768 329.590942,459.823151 
z"/>
<path fill="#7c3aed" opacity="1.000000" stroke="none" 
	d="
M668.508545,456.477539 
	C672.393433,457.002014 673.695679,455.079803 673.768066,451.906647 
	C673.836365,448.916626 673.821167,445.924072 673.933472,442.936035 
	C673.994568,441.307526 674.568542,439.921875 676.569275,440.071503 
	C678.336792,440.203674 678.630432,441.643616 678.616089,442.979492 
	C678.573425,446.964111 678.748718,451.000977 678.162659,454.916229 
	C677.542480,459.060272 674.435852,461.005280 670.357178,461.261902 
	C665.711548,461.554199 661.818054,459.060425 661.150024,454.656525 
	C660.558167,450.754883 660.833008,446.714386 660.828247,442.735046 
	C660.826477,441.297729 661.409668,440.077271 663.169922,440.162537 
	C664.935120,440.247986 665.259094,441.544830 665.286438,442.961487 
	C665.334534,445.453278 665.351074,447.946136 665.341797,450.438385 
	C665.332703,452.871368 665.704773,455.101349 668.508545,456.477539 
z"/>
<path fill="#7c3aed" opacity="1.000000" stroke="none" 
	d="
M493.935272,460.589600 
	C488.604767,462.043182 484.291962,461.188080 481.220490,456.752625 
	C478.605865,452.976898 478.412842,449.046570 480.788666,445.028656 
	C483.169189,441.002808 486.735443,439.361084 491.286499,439.787750 
	C492.417877,439.893799 493.576508,440.258636 494.608154,440.746613 
	C496.078430,441.441986 497.992249,442.178589 497.175201,444.328033 
	C496.339417,446.526794 494.594666,445.869904 492.998627,445.107086 
	C490.063751,443.704376 487.433044,444.080933 485.446411,446.734039 
	C483.651764,449.130615 483.724609,451.793488 485.380676,454.190308 
	C487.256531,456.905090 489.925629,457.383484 492.873077,456.004547 
	C494.471649,455.256653 496.201141,454.449585 497.104584,456.589661 
	C498.145203,459.054718 495.803650,459.550537 493.935272,460.589600 
z"/>
<path fill="#7c3aed" opacity="1.000000" stroke="none" 
	d="
M602.945496,458.109863 
	C598.807739,461.858002 594.274048,462.402222 589.562073,459.724854 
	C585.243774,457.271149 584.200623,453.134094 584.804749,448.530670 
	C585.755493,441.286469 594.408264,437.185638 600.465881,441.052063 
	C601.712219,441.847565 603.243835,442.741364 602.368530,444.567291 
	C601.516968,446.343750 600.046021,446.029449 598.555786,445.238861 
	C595.522705,443.629883 592.704285,443.894196 590.566589,446.713684 
	C588.581055,449.332489 589.078735,452.162537 590.908691,454.584778 
	C592.924805,457.253418 595.708679,457.341614 598.510010,455.842194 
	C600.540100,454.755554 601.981201,455.012726 603.015503,457.536316 
	C603.126221,457.861633 603.003296,458.025391 602.945496,458.109863 
z"/>
<path fill="#7c3aed" opacity="1.000000" stroke="none" 
	d="
M417.952332,444.265686 
	C416.061066,444.073822 414.898499,443.530396 415.205414,441.766846 
	C415.442932,440.402191 416.562592,439.910339 417.786865,439.900421 
	C421.758270,439.868134 425.731476,439.873962 429.701508,439.969177 
	C430.914337,439.998260 431.989471,440.546417 432.060577,442.012390 
	C432.130798,443.459045 431.243256,444.216827 429.939758,444.198517 
	C426.275574,444.147125 426.166931,446.528870 426.232605,449.217590 
	C426.305328,452.196320 426.274597,455.179657 426.202393,458.158905 
	C426.167633,459.591705 425.647430,460.829498 423.905914,460.773956 
	C422.213043,460.720032 421.692108,459.516876 421.672791,458.064636 
	C421.628754,454.752930 421.596436,451.439484 421.657654,448.128540 
	C421.700653,445.802032 421.055054,444.205414 417.952332,444.265686 
z"/>
<path fill="#7c3aed" opacity="1.000000" stroke="none" 
	d="
M651.896118,460.642456 
	C648.847107,460.783844 648.743408,458.903107 648.717712,457.001282 
	C648.684021,454.513885 648.625366,452.024109 648.695801,449.538727 
	C648.775757,446.718140 648.825562,444.092651 644.824951,444.151276 
	C643.492004,444.170807 642.749634,443.197449 642.917236,441.787628 
	C643.054321,440.634094 643.871948,439.955109 644.918396,439.938995 
	C649.058228,439.875061 653.200806,439.890625 657.340454,439.970856 
	C658.694763,439.997101 659.455872,440.878967 659.401917,442.262512 
	C659.357239,443.409576 658.660278,444.198181 657.533447,444.170898 
	C653.357422,444.069855 653.475037,446.817261 653.289062,449.843689 
	C653.071045,453.392670 654.436646,457.122498 651.896118,460.642456 
z"/>
<path fill="#ef4444" opacity="1.000000" stroke="none"
	d="
M516.001099,189.525391
	C527.921936,187.016037 537.708862,192.994354 540.377869,204.043137
	C543.029785,215.020767 537.080444,225.186371 526.369263,227.979706
	C515.840759,230.725403 505.525635,224.949127 502.393585,214.553787
	C499.126343,203.709702 504.189117,194.169617 516.001099,189.525391
z"/>
</svg>